<?xml version="1.0" encoding="utf-8"?>
<!-- Generator: Adobe Illustrator 27.1.1, SVG Export Plug-In . SVG Version: 6.00 Build 0)  -->
<svg version="1.1" id="Layer_1" xmlns="http://www.w3.org/2000/svg" xmlns:xlink="http://www.w3.org/1999/xlink" x="0px" y="0px"
	 viewBox="0 0 1920 1080" style="enable-background:new 0 0 1920 1080;" xml:space="preserve">
<style type="text/css">
	.st0{font-family:'News701BT-BoldA';}
	.st1{font-size:45.2739px;}
	.st2{fill:#A81330;}
</style>
<g>
	<text transform="matrix(1 0 0 1 827.5 554.1289)" class="st0 st1">det</text>
	<path class="st2" d="M938.06,529.57c-0.95-2.87-3.66-5.85-7.46-5.71c-2.21,0.09-4.05,1.18-5.61,2.45c-0.75,0.61-1.46,1.24-2.15,1.9
		c-0.65-2.25-1.85-4.4-4.19-5.48c-3.16-1.46-7.23-0.67-9.72,1.45c-2.84,2.42-3.67,6.11-3.44,9.43c0.26,3.79,1.75,7.42,3.76,10.77
		c2.33,3.87,5.36,7.37,8.07,11.03c0.28,0.37,0.64,0.6,1.02,0.71c0.64,0.25,1.42,0.21,2.07-0.36c2.78-2.47,5.62-4.88,8.13-7.56
		c2.65-2.84,5.87-5.5,8.01-8.66C938.57,536.55,939.18,532.9,938.06,529.57z M934.07,536.14c-0.66,1.68-1.97,3.13-3.28,4.46
		c-1.48,1.5-2.97,3-4.4,4.52c-2.22,2.36-4.62,4.55-7.06,6.73c-4.5-5.81-9.82-11.86-9.93-19.05c-0.04-2.85,0.97-6.62,4.72-7.35
		c4.35-0.84,5.23,3.96,5.48,6.66c0.12,1.29,2.19,2.45,3.36,1.2c1.37-1.48,2.82-2.91,4.39-4.24c1.04-0.89,2.62-2.27,4.26-1.73
		c1.59,0.52,2.42,2.18,2.8,3.48C934.89,532.59,934.75,534.43,934.07,536.14z"/>
	<text transform="matrix(1 0 0 1 937.8657 554.1289)"><tspan x="0" y="0" class="st0 st1">k</tspan><tspan x="29.34" y="0" class="st2 st0 st1">News</tspan></text>
</g>
</svg>
